# xmcd CD database file
#
# Track frame offsets:
#	183
#	13965
#	27260
#	40230
#	62945
#	74895
#	87153
#	98148
#	113668
#	129353
#	143228
#	157843
#	171945
#	181868
#	192785
#
# Disc length: 2750 seconds
#
# Revision: 0
# Processed by: cddbd v1.4PL0 Copyright (c) Steve Scherf et al.
# Submitted via: CDex 1.40Beta9
#
DISCID=cc0abc0f
DTITLE=BB King - On Stage
DYEAR=1990
DGENRE=Blues
TTITLE0=Paying The Cost To Be The Boss
TTITLE1=When My Heart Beats Like A Hammer
TTITLE2=The Woman I Love
TTITLE3=Everyday I Have The Blues
TTITLE4=Dark Is The Night (Part 1)
TTITLE5=Dark Is The Night (Part 2)
TTITLE6=Let's Do The Boogie
TTITLE7=How Blue Can You Get
TTITLE8=The Letter
TTITLE9=You Know I Love You
TTITLE10=Past day
TTITLE11=Whole Lotta Love
TTITLE12=Jump With You Baby
TTITLE13=Catfish Blues
TTITLE14=Three O'Clock Blues
EXTD=YEAR: 1990 ID3G: 0
EXTT0=
EXTT1=
EXTT2=
EXTT3=
EXTT4=
EXTT5=
EXTT6=
EXTT7=
EXTT8=
EXTT9=
EXTT10=
EXTT11=
EXTT12=
EXTT13=
EXTT14=
PLAYORDER=
